# xmcd CD database file
#
# Track frame offsets:
#	150
#	14362
#	25766
#	37971
#	50261
#	64020
#	77599
#	90488
#	103767
#	115245
#	127180
#	137875
#	151585
#	165559
#	177772
#	189525
#	205372
#	215746
#	226656
#	239008
#	247030
#	264016
#	276511
#	287890
#	302135
#	316535
#	327629
#	342575
#
# Disc length: 4707 seconds
#
# Revision: 0
# Processed by: cddbd v1.5.2PL0 Copyright (c) Steve Scherf et al.
# Submitted via: CDex 2.13
#
DISCID=9112611c
DTITLE=Various Artist - Classic Country: An All-Star Treasury [CD1]
DYEAR=1986
DGENRE=Country
TTITLE0=Jerry Reed - Detroit City 
TTITLE1=Conway Twitty - Green, Green Grass Of Home
TTITLE2=Rex Allen and Tex Williams - This Ole House
TTITLE3=Tennessee "Erie" Ford - Take Me Home Country Roads
TTITLE4=John D. Loudermilk - Tobacco Road
TTITLE5=Donna Fargo - Mockin' Bird Hill
TTITLE6=Eddy Aronld - I Really Don't Want To Know
TTITLE7=George Jones -  I Love You Because
TTITLE8=Patti Page - Have I Told You Lately That I Love You?
TTITLE9=The Everly Brothers - I Walk The Line
TTITLE10=Jerry Lee Lewis - I Love You So Much It Hurts
TTITLE11=Bill Anderson - Gentle On My Mind
TTITLE12=Brenda Lee with vocal group and instrumentialists directed by Owen Bradley - Funny How Time Slips Away
TTITLE13=Mel Tillis and The Statesiders - I Can't Stop Loving You
TTITLE14=Charlie Walker - Pick Me Up On Your Way Down
TTITLE15=Linda Ronstadt - Crazy Arms
TTITLE16=Leroy Van Dyke - Tennessee Waltz
TTITLE17=The Everly Brothers - Release Me
TTITLE18=Bill Anderson - Bright Lights And Country Music
TTITLE19=Gary Stewart - If You've Got The Money, I've Got The Time
TTITLE20=Skeeter Davis -  It Wasn't God Who Made Honky Tonk Angels
TTITLE21=Webb Pierce -  There Stands The Glass
TTITLE22=Conway Twitty - Wild Side Of Life
TTITLE23=Bill Anderson - City Lights
TTITLE24=Emmylou Harris - Jambalaya
TTITLE25=Homer and Jethro - Cigareetes, Whuskey and Wild, Wild Women
TTITLE26=Ben Colder - Life Gits Tee-Jus, Don't It?
TTITLE27=The Carlisles - Too Old To Cut The Mustard
EXTD=YEAR: 1986
EXTT0=
EXTT1=
EXTT2=
EXTT3=
EXTT4=
EXTT5=
EXTT6=
EXTT7=
EXTT8=
EXTT9=
EXTT10=
EXTT11=
EXTT12=
EXTT13=
EXTT14=
EXTT15=
EXTT16=
EXTT17=
EXTT18=
EXTT19=
EXTT20=
EXTT21=
EXTT22=
EXTT23=
EXTT24=
EXTT25=
EXTT26=
EXTT27=
PLAYORDER=
